<svg width="40" height="40" viewBox="0 0 40 40" fill="none" xmlns="http://www.w3.org/2000/svg">
<g clip-path="url(#clip0_265_32)">
<path fill-rule="evenodd" clip-rule="evenodd" d="M9.69749 19.6327C9.24085 19.8027 9.24084 20.5785 9.69748 20.7486C14.3887 22.496 18.0737 26.3103 19.645 31.0844C19.8001 31.5555 20.6208 31.5818 20.808 31.1225C23.1221 25.4461 28.6959 21.4453 35.2041 21.4453C36.9536 21.4453 38.6355 21.7344 40.2048 22.2674V33.9394C40.2048 37.5097 37.3105 40.404 33.7402 40.404H6.26542C2.6951 40.404 -0.199219 37.5097 -0.199219 33.9394V6.46464C-0.199219 2.89432 2.6951 0 6.26543 0H33.7402C37.3105 0 40.2048 2.89432 40.2048 6.46465V18.1073C38.6111 18.6592 36.8996 18.9589 35.1181 18.9589C28.6355 18.9589 23.08 14.9896 20.7496 9.34873C20.5625 8.89586 19.7714 8.92093 19.6156 9.38548C18.028 14.1181 14.3597 17.8961 9.69749 19.6327Z" fill="#EA580C"/>
</g>
<defs>
<clipPath id="clip0_265_32">
<rect width="40" height="40" fill="white"/>
</clipPath>
</defs>
</svg>
