<?xml version="1.0" encoding="UTF-8"?>
<svg version="1.1" xmlns="http://www.w3.org/2000/svg" width="40" height="40">
<path d="M0 0 C4.68796317 2.8950501 8.77605467 6.42344712 10.234375 11.89453125 C11.16656452 18.74158704 11.3930195 24.99387098 7.671875 31.01953125 C3.66347868 35.99068326 0.31000422 38.47580101 -6.0078125 39.3359375 C-13.1275177 39.69575056 -18.34453314 39.19135672 -23.98828125 34.640625 C-29.08369757 29.63479842 -30.03494232 26.05750776 -30.390625 19.01953125 C-30.17838344 12.13997715 -28.58962241 7.80486419 -23.765625 2.89453125 C-17.29271618 -2.6344117 -7.84970384 -3.13766411 0 0 Z M-15.66796875 3.64453125 C-20.77592384 6.78185492 -23.48642935 9.29150862 -25.765625 14.89453125 C-26.92600641 21.02279557 -25.14384015 24.82720852 -21.765625 29.89453125 C-18.47773676 26.7843667 -15.92826512 23.878342 -13.765625 19.89453125 C-15.745625 18.90453125 -17.725625 17.91453125 -19.765625 16.89453125 C-18.27486066 13.61183805 -16.37942179 10.96375684 -14.140625 8.14453125 C-13.50898438 7.3453125 -12.87734375 6.54609375 -12.2265625 5.72265625 C-11.74445312 5.119375 -11.26234375 4.51609375 -10.765625 3.89453125 C-13.59862794 2.59345076 -13.59862794 2.59345076 -15.66796875 3.64453125 Z M-4.765625 3.89453125 C-7.735625 7.19453125 -10.705625 10.49453125 -13.765625 13.89453125 C-12.280625 14.88453125 -12.280625 14.88453125 -10.765625 15.89453125 C-8.125625 12.59453125 -5.485625 9.29453125 -2.765625 5.89453125 C-3.425625 5.23453125 -4.085625 4.57453125 -4.765625 3.89453125 Z M1.234375 7.89453125 C0.01478968 9.36856242 -1.16676363 10.87420364 -2.328125 12.39453125 C-2.96878906 13.22984375 -3.60945313 14.06515625 -4.26953125 14.92578125 C-5.01009766 15.9003125 -5.01009766 15.9003125 -5.765625 16.89453125 C-4.37366585 19.67844955 -2.60986721 19.87352122 0.234375 20.89453125 C-1.25638934 24.17722445 -3.15182821 26.82530566 -5.390625 29.64453125 C-6.02226562 30.44375 -6.65390625 31.24296875 -7.3046875 32.06640625 C-7.78679688 32.6696875 -8.26890625 33.27296875 -8.765625 33.89453125 C-5.93262206 35.19561174 -5.93262206 35.19561174 -3.86328125 34.14453125 C1.24467384 31.00720758 3.95517935 28.49755388 6.234375 22.89453125 C7.39475641 16.76626693 5.61259015 12.96185398 2.234375 7.89453125 C1.904375 7.89453125 1.574375 7.89453125 1.234375 7.89453125 Z M-8.765625 21.89453125 C-10.1513091 23.53508747 -11.49952165 25.20741588 -12.828125 26.89453125 C-13.92833984 28.28671875 -13.92833984 28.28671875 -15.05078125 29.70703125 C-15.61667969 30.42890625 -16.18257812 31.15078125 -16.765625 31.89453125 C-16.105625 32.55453125 -15.445625 33.21453125 -14.765625 33.89453125 C-12.125625 30.92453125 -9.485625 27.95453125 -6.765625 24.89453125 C-7.095625 23.90453125 -7.425625 22.91453125 -7.765625 21.89453125 C-8.095625 21.89453125 -8.425625 21.89453125 -8.765625 21.89453125 Z " fill="#FE143C" transform="translate(29.765625,1.10546875)"/>
</svg>
