<svg width="138" height="40" viewBox="0 0 138 40" fill="none" xmlns="http://www.w3.org/2000/svg">
<g clip-path="url(#clip0_265_63)">
<path fill-rule="evenodd" clip-rule="evenodd" d="M10.611 19.6334C10.1543 19.8034 10.1543 20.5794 10.611 20.7495C15.3013 22.4963 18.9858 26.3093 20.5579 31.0818C20.713 31.5526 21.5322 31.5789 21.7195 31.1198C24.0343 25.4451 29.6072 21.4458 36.1142 21.4458C37.8637 21.4458 39.5457 21.7349 41.115 22.2679V33.9404C41.115 37.5107 38.2207 40.405 34.6503 40.405H7.17558C3.60525 40.405 0.710938 37.5107 0.710938 33.9404V6.46562C0.710938 2.89529 3.60526 0.000976562 7.17558 0.000976562H34.6503C38.2207 0.000976562 41.115 2.8953 41.115 6.46562V18.1097C39.5223 18.6606 37.8122 18.9599 36.0322 18.9599C29.5495 18.9599 23.994 14.9904 21.6635 9.3495C21.4764 8.89663 20.6854 8.92169 20.5296 9.38623C18.9419 14.1189 15.2734 17.8969 10.611 19.6334Z" fill="#EA580C"/>
<path d="M57.1996 33.5818C55.4784 33.5818 53.9633 33.1939 52.6542 32.4182C51.3693 31.6182 50.3754 30.5273 49.6724 29.1455C48.9693 27.7394 48.6057 26.1273 48.5815 24.3091L52.5815 24.0909C52.6057 26.0303 53.0178 27.497 53.8178 28.4909C54.6178 29.4848 55.7451 29.9818 57.1996 29.9818C58.7269 29.9818 59.8906 29.4606 60.6906 28.4182C61.5148 27.3758 61.9269 25.8727 61.9269 23.9091V7.18181H65.8542V23.9091C65.8542 25.8727 65.4906 27.5818 64.7633 29.0364C64.0603 30.4909 63.0663 31.6182 61.7815 32.4182C60.4966 33.1939 58.9693 33.5818 57.1996 33.5818ZM76.1423 33.4364C74.1301 33.4364 72.518 32.9758 71.3059 32.0545C70.118 31.1333 69.5241 29.8364 69.5241 28.1636C69.5241 26.4909 70.021 25.1939 71.015 24.2727C72.0332 23.3273 73.5968 22.6485 75.7059 22.2364L82.3604 20.9636C82.3604 19.4606 82.0089 18.3455 81.3059 17.6182C80.6029 16.8667 79.5604 16.4909 78.1786 16.4909C76.9423 16.4909 75.9726 16.7697 75.2695 17.3273C74.5665 17.8606 74.0817 18.6606 73.815 19.7273L69.8514 19.4727C70.215 17.5333 71.112 16.0061 72.5423 14.8909C73.9968 13.7758 75.8756 13.2182 78.1786 13.2182C80.7968 13.2182 82.7847 13.9212 84.1423 15.3273C85.5241 16.7091 86.215 18.6606 86.215 21.1818V28.7091C86.215 29.1697 86.2877 29.497 86.4332 29.6909C86.6029 29.8606 86.8695 29.9455 87.2332 29.9455H87.9241V33C87.8029 33.0242 87.6089 33.0485 87.3423 33.0727C87.0756 33.097 86.7968 33.1091 86.5059 33.1091C85.6817 33.1091 84.9665 32.9758 84.3604 32.7091C83.7786 32.4424 83.3423 32.0061 83.0514 31.4C82.7604 30.7697 82.615 29.9333 82.615 28.8909L83.015 29.0727C82.821 29.9212 82.3968 30.6727 81.7423 31.3273C81.112 31.9818 80.2998 32.503 79.3059 32.8909C78.3362 33.2545 77.2817 33.4364 76.1423 33.4364ZM76.7604 30.3818C77.9241 30.3818 78.918 30.1636 79.7423 29.7273C80.5665 29.2667 81.2089 28.6364 81.6695 27.8364C82.1301 27.0364 82.3604 26.1273 82.3604 25.1091V23.8727L76.6877 24.9636C75.5241 25.1818 74.6998 25.5333 74.215 26.0182C73.7544 26.4788 73.5241 27.0727 73.5241 27.8C73.5241 28.6242 73.8029 29.2667 74.3604 29.7273C74.9423 30.1636 75.7423 30.3818 76.7604 30.3818ZM94.9636 33L87.909 13.6545H92.0181L97.2908 29.0727L102.564 13.6545H106.709L99.6181 33H94.9636ZM109.375 33V13.6545H113.229V33H109.375ZM109.302 10.8545V7H113.302V10.8545H109.302ZM118.544 33V13.6545H122.071L122.216 18.8182L121.744 18.5636C121.962 17.303 122.374 16.2848 122.98 15.5091C123.586 14.7333 124.326 14.1636 125.198 13.8C126.071 13.4121 127.016 13.2182 128.035 13.2182C129.489 13.2182 130.689 13.5455 131.635 14.2C132.604 14.8303 133.332 15.703 133.816 16.8182C134.326 17.9091 134.58 19.1576 134.58 20.5636V33H130.726V21.7273C130.726 20.5879 130.604 19.6303 130.362 18.8545C130.119 18.0788 129.719 17.4848 129.162 17.0727C128.604 16.6606 127.877 16.4545 126.98 16.4545C125.622 16.4545 124.519 16.903 123.671 17.8C122.822 18.697 122.398 20.0061 122.398 21.7273V33H118.544Z" fill="white"/>
</g>
<defs>
<clipPath id="clip0_265_63">
<rect width="136.455" height="40" fill="white" transform="translate(0.910156)"/>
</clipPath>
</defs>
</svg>
