<svg width="137" height="40" viewBox="0 0 137 40" fill="none" xmlns="http://www.w3.org/2000/svg">
<g clip-path="url(#clip0_265_74)">
<path fill-rule="evenodd" clip-rule="evenodd" d="M10.0602 19.6334C9.60352 19.8034 9.60351 20.5794 10.0602 20.7495C14.7505 22.4963 18.435 26.3093 20.0071 31.0818C20.1622 31.5526 20.9814 31.5789 21.1687 31.1198C23.4835 25.4451 29.0564 21.4458 35.5635 21.4458C37.3129 21.4458 38.9949 21.7349 40.5642 22.2679V33.9404C40.5642 37.5107 37.6699 40.405 34.0996 40.405H6.6248C3.05447 40.405 0.160156 37.5107 0.160156 33.9404V6.46562C0.160156 2.89529 3.05448 0.000976562 6.6248 0.000976562H34.0996C37.6699 0.000976562 40.5642 2.8953 40.5642 6.46562V18.1097C38.9716 18.6606 37.2614 18.9599 35.4814 18.9599C28.9987 18.9599 23.4432 14.9904 21.1128 9.3495C20.9257 8.89663 20.1346 8.92169 19.9788 9.38623C18.3911 14.1189 14.7226 17.8969 10.0602 19.6334Z" fill="#EA580C"/>
<path d="M56.6528 33.5818C54.9316 33.5818 53.4164 33.1939 52.1073 32.4182C50.8225 31.6182 49.8285 30.5273 49.1255 29.1455C48.4225 27.7394 48.0588 26.1273 48.0346 24.3091L52.0346 24.0909C52.0588 26.0303 52.471 27.497 53.271 28.4909C54.071 29.4848 55.1982 29.9818 56.6528 29.9818C58.18 29.9818 59.3437 29.4606 60.1437 28.4182C60.9679 27.3758 61.38 25.8727 61.38 23.9091V7.18181H65.3073V23.9091C65.3073 25.8727 64.9437 27.5818 64.2164 29.0364C63.5134 30.4909 62.5194 31.6182 61.2346 32.4182C59.9497 33.1939 58.4225 33.5818 56.6528 33.5818ZM75.5954 33.4364C73.5833 33.4364 71.9711 32.9758 70.759 32.0545C69.5711 31.1333 68.9772 29.8364 68.9772 28.1636C68.9772 26.4909 69.4742 25.1939 70.4681 24.2727C71.4863 23.3273 73.0499 22.6485 75.159 22.2364L81.8136 20.9636C81.8136 19.4606 81.4621 18.3455 80.759 17.6182C80.056 16.8667 79.0136 16.4909 77.6317 16.4909C76.3954 16.4909 75.4257 16.7697 74.7227 17.3273C74.0196 17.8606 73.5348 18.6606 73.2681 19.7273L69.3045 19.4727C69.6681 17.5333 70.5651 16.0061 71.9954 14.8909C73.4499 13.7758 75.3287 13.2182 77.6317 13.2182C80.2499 13.2182 82.2378 13.9212 83.5954 15.3273C84.9772 16.7091 85.6681 18.6606 85.6681 21.1818V28.7091C85.6681 29.1697 85.7408 29.497 85.8863 29.6909C86.056 29.8606 86.3227 29.9455 86.6863 29.9455H87.3772V33C87.256 33.0242 87.0621 33.0485 86.7954 33.0727C86.5287 33.097 86.2499 33.1091 85.959 33.1091C85.1348 33.1091 84.4196 32.9758 83.8136 32.7091C83.2318 32.4424 82.7954 32.0061 82.5045 31.4C82.2136 30.7697 82.0681 29.9333 82.0681 28.8909L82.4681 29.0727C82.2742 29.9212 81.8499 30.6727 81.1954 31.3273C80.5651 31.9818 79.753 32.503 78.759 32.8909C77.7893 33.2545 76.7348 33.4364 75.5954 33.4364ZM76.2136 30.3818C77.3772 30.3818 78.3711 30.1636 79.1954 29.7273C80.0196 29.2667 80.6621 28.6364 81.1227 27.8364C81.5833 27.0364 81.8136 26.1273 81.8136 25.1091V23.8727L76.1408 24.9636C74.9772 25.1818 74.153 25.5333 73.6681 26.0182C73.2075 26.4788 72.9772 27.0727 72.9772 27.8C72.9772 28.6242 73.256 29.2667 73.8136 29.7273C74.3954 30.1636 75.1954 30.3818 76.2136 30.3818ZM94.4167 33L87.3621 13.6545H91.4712L96.744 29.0727L102.017 13.6545H106.162L99.0712 33H94.4167ZM108.828 33V13.6545H112.682V33H108.828ZM108.755 10.8545V7H112.755V10.8545H108.755ZM117.997 33V13.6545H121.524L121.67 18.8182L121.197 18.5636C121.415 17.303 121.827 16.2848 122.433 15.5091C123.039 14.7333 123.779 14.1636 124.651 13.8C125.524 13.4121 126.47 13.2182 127.488 13.2182C128.942 13.2182 130.142 13.5455 131.088 14.2C132.057 14.8303 132.785 15.703 133.27 16.8182C133.779 17.9091 134.033 19.1576 134.033 20.5636V33H130.179V21.7273C130.179 20.5879 130.057 19.6303 129.815 18.8545C129.573 18.0788 129.173 17.4848 128.615 17.0727C128.057 16.6606 127.33 16.4545 126.433 16.4545C125.076 16.4545 123.973 16.903 123.124 17.8C122.276 18.697 121.851 20.0061 121.851 21.7273V33H117.997Z" fill="black"/>
</g>
<defs>
<clipPath id="clip0_265_74">
<rect width="136.455" height="40" fill="white" transform="translate(0.363281)"/>
</clipPath>
</defs>
</svg>
