<?xml version="1.0" encoding="UTF-8"?>
<svg version="1.1" xmlns="http://www.w3.org/2000/svg" width="6194" height="1245">
<path d="M0 0 C1.20670349 -0.00067474 2.41340698 -0.00134949 3.65667725 -0.00204468 C25.17187297 0.01693191 46.42814785 0.88735585 67.8125 3.25 C68.94609955 3.37375 68.94609955 3.37375 70.1026001 3.5 C138.92911968 11.09082482 206.44983108 30.07263758 268.8125 60.25 C270.56941162 61.09667236 270.56941162 61.09667236 272.36181641 61.96044922 C289.63447404 70.3102856 306.43258701 79.23641716 322.8125 89.25 C323.65844727 89.7665918 324.50439453 90.28318359 325.37597656 90.81542969 C349.38442329 105.56144608 372.38630451 121.85244465 394.08447266 139.82617188 C395.6433644 141.11063877 397.21730439 142.37678937 398.79296875 143.640625 C404.42272401 148.1574272 409.78538543 152.89126698 415.04760742 157.82641602 C417.83157705 160.43674928 420.65115669 162.98469448 423.54394531 165.47436523 C427.63770634 169.05006538 431.51136647 172.80385764 435.34765625 176.65234375 C436.03000839 177.33373917 436.71236053 178.01513458 437.41539001 178.71717834 C438.84594437 180.14705741 440.27525767 181.57817911 441.70336914 183.01049805 C443.86949074 185.18197711 446.04090174 187.34806325 448.21289062 189.51367188 C449.61229987 190.91374202 451.01139884 192.31412238 452.41015625 193.71484375 C453.04889175 194.35155502 453.68762726 194.9882663 454.34571838 195.64427185 C458.69828196 200.01916925 462.78843334 204.57287921 466.8125 209.25 C467.85801922 210.44129541 468.90469519 211.63157782 469.953125 212.8203125 C476.68414739 220.49870357 483.14478899 228.32222263 489.37597656 236.41015625 C490.83871413 238.28357404 492.33299261 240.12747573 493.8359375 241.96875 C516.05327948 269.45606434 534.88059225 300.38778185 551.38134766 331.56396484 C552.61227142 333.87420422 553.86521093 336.16898963 555.13671875 338.45703125 C594.78570901 410.31629582 615.83041156 494.10482725 624 621.875 C623.99939575 622.8514447 623.9987915 623.8278894 623.99816895 624.83392334 C623.9684048 642.70729158 623.40692921 660.43987501 621.8125 678.25 C621.7516925 678.93288086 621.69088501 679.61576172 621.62823486 680.31933594 C614.15969572 762.85903319 590.25310055 844.77923793 542.24853516 931.78662109 C540.97102086 933.97807285 539.71985433 936.18138136 538.48046875 938.39453125 C526.29065829 959.95164333 511.87383927 980.61526238 496.8125 1000.25 C496.32491211 1000.88776367 495.83732422 1001.52552734 495.33496094 1002.18261719 C489.20326196 1010.17341728 482.81140921 1017.92483947 476.25244141 1025.56738281 C474.72775974 1027.34902168 473.21294495 1029.1387341 471.69921875 1030.9296875 C462.55620514 1041.71804641 462.55620514 1041.71804641 457.48754883 1046.57397461 C455.81669155 1048.24580601 454.29481796 1049.9834362 452.765625 1051.78515625 C448.20496825 1057.02958134 443.29794839 1061.910545 438.375 1066.8125 C437.47201172 1067.71935547 436.56902344 1068.62621094 435.63867188 1069.56054688 C431.08129061 1074.11132802 426.47252541 1078.52962416 421.58422852 1082.72338867 C418.99183701 1084.95712494 416.50400433 1087.29259877 414 1089.625 C409.40825319 1093.86186417 404.70295886 1097.90405883 399.83203125 1101.8203125 C397.6058284 1103.61164261 395.39761884 1105.41738303 393.19921875 1107.2421875 C384.08280923 1114.78170456 374.69985524 1121.83667728 365.04296875 1128.66796875 C362.87505009 1130.20563435 360.71770119 1131.75707651 358.5625 1133.3125 C332.46924919 1152.06569319 304.50308781 1167.84977566 275.8125 1182.25 C274.77512695 1182.77335937 273.73775391 1183.29671875 272.66894531 1183.8359375 C255.77418038 1192.31290329 238.46246133 1199.52974126 220.8125 1206.25 C219.08241699 1206.91128906 219.08241699 1206.91128906 217.31738281 1207.5859375 C172.5723592 1224.53383741 125.34676369 1235.6914645 77.875 1241.5 C76.03264771 1241.72659302 76.03264771 1241.72659302 74.15307617 1241.95776367 C70.04292574 1242.43309449 65.93097852 1242.85458768 61.8125 1243.25 C60.48431747 1243.3808046 60.48431747 1243.3808046 59.12930298 1243.51425171 C40.63871677 1245.2862378 22.22381114 1245.61375345 3.66771698 1245.56805801 C1.33985831 1245.56241481 -0.98799308 1245.55959625 -3.31585693 1245.55697632 C-25.41559607 1245.52081367 -47.23916471 1245.08492355 -69.1875 1242.25 C-70.60559636 1242.08036847 -72.02389928 1241.91245663 -73.44238281 1241.74609375 C-169.99562838 1230.35331338 -264.12206766 1195.69473793 -391.45507812 1106.67822266 C-393.93060877 1104.6373751 -396.43748215 1102.63572864 -398.9375 1100.625 C-403.93544769 1096.53645332 -408.6759002 1092.20347677 -413.40625 1087.8125 C-415.69537222 1085.7034211 -418.01225164 1083.65021288 -420.375 1081.625 C-424.09660934 1078.40422836 -427.52439749 1074.93096586 -430.9765625 1071.42578125 C-432.94123841 1069.49234577 -434.95202391 1067.70771566 -437.0625 1065.9375 C-441.07513 1062.50038665 -444.58154926 1058.64911624 -448.11181641 1054.73217773 C-450.8128247 1051.73758158 -453.56105996 1048.82626958 -456.4375 1046 C-460.23336539 1042.25005234 -463.72068492 1038.30350686 -467.1875 1034.25 C-468.09322194 1033.20787415 -468.99951803 1032.16624715 -469.90625 1031.125 C-476.93251549 1023.03044714 -483.67122911 1014.75960544 -490.1875 1006.25 C-490.74808105 1005.52071289 -491.30866211 1004.79142578 -491.88623047 1004.04003906 C-548.74580416 929.86463215 -589.33193903 843.87556741 -617.37890625 543.875 C-604.89854541 449.6943567 -571.98708287 359.30358208 -492.1875 242.25 C-491.30763759 241.11402119 -490.42876134 239.977278 -489.55078125 238.83984375 C-480.50147551 227.15514895 -470.91567702 215.98853466 -460.85546875 205.1640625 C-459.48875458 203.67128246 -458.1241478 202.17533611 -456.81469727 200.63208008 C-451.14025063 193.9524202 -444.91180215 187.82369268 -438.70874023 181.64086914 C-436.75454376 179.6920313 -434.80574853 177.73790728 -432.85742188 175.78320312 C-426.8029238 169.72546743 -420.73761939 163.77656766 -414.1875 158.25 C-412.57981627 156.79554483 -410.97510285 155.33779105 -409.375 153.875 C-404.12574117 149.14428498 -398.69191004 144.67916306 -393.1875 140.25 C-392.06614698 139.33625558 -390.94506489 138.42217861 -389.82421875 137.5078125 C-357.42876844 111.19010837 -322.13432169 88.61820677 -285.1875 69.25 C-284.21329102 68.73759766 -283.23908203 68.22519531 -282.23535156 67.69726562 C-209.78211425 29.8530755 -128.58490187 7.55893005 -44.1875 1.25 C-42.96071533 1.16314941 -41.73393066 1.07629883 -40.4699707 0.98681641 C-26.98828937 0.10064771 -13.50696144 0.00684267 0 0 Z M-121.1875 125.25 C-122.21907227 125.49943359 -123.25064453 125.74886719 -124.31347656 126.00585938 C-203.33280176 145.36870505 -279.90219851 185.29690684 -339.5625 240.8359375 C-340.95687092 242.11826076 -342.35768939 243.39479106 -343.80053711 244.62231445 C-350.17032609 250.04650259 -356.04080771 255.95207535 -361.94213867 261.87426758 C-363.74612085 263.68360933 -365.55538665 265.48754319 -367.36523438 267.29101562 C-373.18608662 273.10821168 -378.88060763 278.95342683 -384.1875 285.25 C-385.13614142 286.33367935 -386.08661786 287.41575552 -387.0390625 288.49609375 C-394.83980766 297.4390561 -402.1086702 306.72801561 -409.1875 316.25 C-409.7252002 316.97203613 -410.26290039 317.69407227 -410.81689453 318.43798828 C-467.12345489 394.37653241 -500.56318623 483.4197323 -511.4375 621.4375 C-511.43817474 622.41432739 -511.43884949 623.39115479 -511.43954468 624.39758301 C-511.36022756 697.50275942 -495.32681623 770.06309119 -464.51416016 836.39111328 C-463.35076295 838.89817645 -462.20771903 841.41292346 -461.07421875 843.93359375 C-448.71298978 871.1775278 -432.95102274 897.20772955 -415.1875 921.25 C-414.70361816 921.91112793 -414.21973633 922.57225586 -413.72119141 923.25341797 C-404.20494389 936.24151344 -394.30128936 948.99698158 -383.3828125 960.84375 C-381.5383113 962.86548085 -379.73819443 964.91330645 -377.9453125 966.98046875 C-374.05012904 971.44415533 -370.00870752 975.75962862 -365.9375 980.0625 C-365.23109375 980.81208984 -364.5246875 981.56167969 -363.796875 982.33398438 C-360.99917569 985.29863369 -360.99917569 985.29863369 -358.1875 988.25 C-357.7018457 988.84256592 -357.21619141 989.43513184 -356.71582031 990.0456543 C-355.24972867 991.47316366 -355.24972867 991.47316366 -353.19165039 991.14526367 C-350.80084418 990.07727898 -349.75608323 988.96426837 -348.12109375 986.92578125 C-347.5590625 986.23419922 -346.99703125 985.54261719 -346.41796875 984.83007812 C-345.82628906 984.08177734 -345.23460937 983.33347656 -344.625 982.5625 C-344.00367188 981.79228516 -343.38234375 981.02207031 -342.7421875 980.22851562 C-338.57080402 975.04212405 -334.45965511 969.80716295 -330.3684082 964.55737305 C-325.60556427 958.46138238 -320.66672441 952.51296586 -315.73828125 946.55078125 C-308.23688033 937.47488568 -300.80073342 928.34994911 -293.5625 919.0625 C-289.60218342 913.98108279 -285.50539084 909.04205516 -281.31640625 904.14819336 C-277.4745202 899.6393132 -273.80896753 895.00680032 -270.16748047 890.33544922 C-266.71546049 885.90943571 -263.19023873 881.55042871 -259.625 877.21484375 C-252.51558998 868.56734021 -245.44205952 859.89436695 -238.5625 851.0625 C-234.60232931 845.9809727 -230.50538542 841.04204883 -226.31640625 836.14819336 C-222.4745202 831.6393132 -218.80896753 827.00680032 -215.16748047 822.33544922 C-211.71546049 817.90943571 -208.19023873 813.55042871 -204.625 809.21484375 C-197.51558998 800.56734021 -190.44205952 791.89436695 -183.5625 783.0625 C-179.60232931 777.9809727 -175.50538542 773.04204883 -171.31640625 768.14819336 C-167.4745202 763.6393132 -163.80896753 759.00680032 -160.16748047 754.33544922 C-156.71546049 749.90943571 -153.19023873 745.55042871 -149.625 741.21484375 C-142.58195612 732.64806442 -135.57005564 724.05826291 -128.75 715.3125 C-123.53171234 708.62609072 -118.14192389 702.08768373 -112.73828125 695.55078125 C-105.1257563 686.34043746 -97.58572032 677.07107193 -90.1875 667.6875 C-89.75477783 667.14005127 -89.32205566 666.59260254 -88.8762207 666.02856445 C-86.69489771 663.24796287 -84.5835537 660.43126477 -82.53515625 657.55102539 C-82.09308838 656.93006485 -81.65102051 656.30910431 -81.19555664 655.66932678 C-80.86289795 655.20094894 -80.53023926 654.73257111 -80.1875 654.25 C-100.23451451 645.92055185 -120.28628776 637.60346119 -140.375 629.375 C-154.50931481 623.58495052 -168.63354602 617.77096503 -182.75 611.9375 C-183.70837769 611.5414859 -184.66675537 611.1454718 -185.6541748 610.73745728 C-193.48150459 607.50292787 -201.30832912 604.26717658 -209.13513184 601.03137207 C-215.96485333 598.20784697 -222.79478585 595.38483314 -229.625 592.5625 C-230.58273315 592.1667276 -231.54046631 591.7709552 -232.52722168 591.3631897 C-246.46147812 585.60581016 -260.40592693 579.87376642 -274.3578186 574.15927124 C-289.30834854 568.03466963 -304.23519544 561.85355372 -319.15551758 555.65576172 C-319.99161057 555.30854065 -320.82770355 554.96131958 -321.68913269 554.60357666 C-323.24803615 553.95607872 -324.80681186 553.30827308 -326.36543274 552.66009521 C-329.96333265 551.16544402 -333.56545128 549.68551943 -337.1875 548.25 C-335.8560435 545.371582 -334.35451678 543.05803749 -332.31640625 540.6328125 C-331.74792969 539.95089844 -331.17945313 539.26898437 -330.59375 538.56640625 C-329.9853125 537.84324219 -329.376875 537.12007812 -328.75 536.375 C-324.3193815 531.05644568 -319.93371497 525.71707174 -315.6875 520.25 C-311.02837707 514.26229566 -306.21815569 508.40904219 -301.37890625 502.56640625 C-297.75048581 498.17577932 -294.18597698 493.74470625 -290.6875 489.25 C-285.49348364 482.58130542 -280.12343705 476.06547404 -274.73828125 469.55078125 C-267.30347764 460.55546134 -259.92896742 451.5136376 -252.75 442.3125 C-247.53551416 435.63135051 -242.1504583 429.09753698 -236.75 422.56640625 C-229.19123823 413.4218758 -221.72633794 404.19978403 -214.33203125 394.921875 C-212.08886271 392.12710764 -209.8269877 389.34824944 -207.56274414 386.57055664 C-202.90593906 380.85749951 -198.28145749 375.1255903 -193.75 369.3125 C-188.53184478 362.62599129 -183.14192011 356.08767916 -177.73828125 349.55078125 C-170.30347764 340.55546134 -162.92896742 331.5136376 -155.75 322.3125 C-150.53152124 315.6262345 -145.14192923 309.08769019 -139.73828125 302.55078125 C-132.30347764 293.55546134 -124.92896742 284.5136376 -117.75 275.3125 C-112.53152124 268.6262345 -107.14192923 262.08769019 -101.73828125 255.55078125 C-94.30347764 246.55546134 -86.92896742 237.5136376 -79.75 228.3125 C-74.53152124 221.6262345 -69.14192923 215.08769019 -63.73828125 208.55078125 C-56.30347764 199.55546134 -48.92896742 190.5136376 -41.75 181.3125 C-36.53551416 174.63135051 -31.1504583 168.09753698 -25.75 161.56640625 C-18.20256186 152.43557504 -10.74048669 143.23294034 -3.3671875 133.9609375 C-1.55267112 131.70417341 0.27757254 129.46281539 2.1171875 127.2265625 C2.705 126.50984375 3.2928125 125.793125 3.8984375 125.0546875 C5.06976304 123.62761403 6.24413101 122.20303103 7.421875 120.78125 C8.23011719 119.79511719 8.23011719 119.79511719 9.0546875 118.7890625 C9.5379248 118.20334473 10.02116211 117.61762695 10.51904297 117.01416016 C11.86846857 115.17366386 12.8512618 113.31595326 13.8125 111.25 C-32.20650045 110.62958344 -76.37909896 114.26928512 -121.1875 125.25 Z M146.109375 135.50390625 C145.23613629 136.58764731 144.38849126 137.69233083 143.5625 138.8125 C143.09561768 139.40385742 142.62873535 139.99521484 142.14770508 140.60449219 C140.68083968 142.47047285 139.24685524 144.35896884 137.8125 146.25 C136.92860373 147.38111752 136.04195861 148.51009332 135.15234375 149.63671875 C133.81227033 151.33422765 132.47427576 153.0330151 131.14501953 154.73901367 C126.91391155 160.16638612 122.54344937 165.47332829 118.15844727 170.77661133 C110.00365597 180.63938766 101.93311493 190.57023895 93.95703125 200.578125 C91.71386271 203.37289236 89.4519877 206.15175056 87.18774414 208.92944336 C82.53093906 214.64250049 77.90645749 220.3744097 73.375 226.1875 C68.15684478 232.87400871 62.76692011 239.41232084 57.36328125 245.94921875 C49.92847764 254.94453866 42.55396742 263.9863624 35.375 273.1875 C30.16051416 279.86864949 24.7754583 286.40246302 19.375 292.93359375 C11.81623823 302.0781242 4.35133794 311.30021597 -3.04296875 320.578125 C-5.28613729 323.37289236 -7.5480123 326.15175056 -9.81225586 328.92944336 C-14.46906094 334.64250049 -19.09354251 340.3744097 -23.625 346.1875 C-28.83916252 352.86889248 -34.22455086 359.4024741 -39.625 365.93359375 C-47.18376177 375.0781242 -54.64866206 384.30021597 -62.04296875 393.578125 C-64.28613729 396.37289236 -66.5480123 399.15175056 -68.81225586 401.92944336 C-73.46906094 407.64250049 -78.09354251 413.3744097 -82.625 419.1875 C-87.84315522 425.87400871 -93.23307989 432.41232084 -98.63671875 438.94921875 C-106.52756849 448.49630588 -114.3281282 458.10935306 -121.94287109 467.87817383 C-126.27275147 473.40870475 -130.74463729 478.81972327 -135.24194336 484.21459961 C-139.0398776 488.7878697 -142.6645367 493.4617077 -146.1875 498.25 C-143.50206326 501.58364561 -139.9369284 502.78753199 -136.06640625 504.296875 C-135.34769348 504.58460281 -134.62898071 504.87233063 -133.88848877 505.16877747 C-132.32993685 505.79193026 -130.7700119 506.41165746 -129.20889282 507.02835083 C-124.99233897 508.69455239 -120.78606803 510.38641756 -116.578125 512.07421875 C-115.71125565 512.42109238 -114.84438629 512.767966 -113.95124817 513.12535095 C-106.0088435 516.30795441 -98.10625701 519.58181537 -90.21383667 522.8861084 C-88.00155528 523.81184919 -85.78818489 524.73493654 -83.57446289 525.65722656 C-76.68859523 528.52717222 -69.8076027 531.40784248 -62.93742371 534.31517029 C-59.78040987 535.64876541 -56.61964982 536.97331325 -53.45809937 538.29611206 C-51.95637047 538.92699442 -50.45635091 539.56196268 -48.9581604 540.20120239 C-46.89295654 541.0820004 -44.82237521 541.94873893 -42.75 542.8125 C-40.98849609 543.55693359 -40.98849609 543.55693359 -39.19140625 544.31640625 C-36.19120748 545.24884774 -34.99840787 545.5507694 -32.1875 544.25 C-30.3614986 542.39440376 -28.74936435 540.58136533 -27.125 538.5625 C-26.64458252 537.98016602 -26.16416504 537.39783203 -25.66918945 536.79785156 C-21.88270392 532.18220411 -18.19782171 527.48521852 -14.53173828 522.77368164 C-10.18000051 517.19384138 -5.68034346 511.74095453 -1.17089844 506.28833008 C2.49162821 501.85848897 6.11476856 497.40198472 9.69140625 492.90234375 C12.54445967 489.33471342 15.42900674 485.79304387 18.3125 482.25 C22.45475666 477.15919767 26.57744974 472.0543999 30.66796875 466.921875 C33.46844713 463.4327544 36.29821822 459.96781898 39.125 456.5 C43.28498764 451.39619494 47.39222505 446.257623 51.4375 441.0625 C55.39757082 435.98089818 59.49461852 431.04204423 63.68359375 426.14819336 C67.5254798 421.6393132 71.19103247 417.00680032 74.83251953 412.33544922 C78.28453951 407.90943571 81.80976127 403.55042871 85.375 399.21484375 C92.41804388 390.64806442 99.42994436 382.05826291 106.25 373.3125 C111.46828766 366.62609072 116.85807611 360.08768373 122.26171875 353.55078125 C129.76311967 344.47488568 137.19926658 335.34994911 144.4375 326.0625 C148.39781658 320.98108279 152.49460916 316.04205516 156.68359375 311.14819336 C160.5254798 306.6393132 164.19103247 302.00680032 167.83251953 297.33544922 C171.28453951 292.90943571 174.80976127 288.55042871 178.375 284.21484375 C185.41804388 275.64806442 192.42994436 267.05826291 199.25 258.3125 C204.46828766 251.62609072 209.85807611 245.08768373 215.26171875 238.55078125 C223.2282457 228.91213276 231.0948465 219.20202735 238.78100586 209.33837891 C242.38884089 204.73316503 246.14327285 200.26641086 249.94506836 195.82080078 C253.71236976 191.40491133 257.30924434 186.87716703 260.8125 182.25 C235.11970207 161.56400372 199.08964563 149.64015888 168.4375 138.5625 C167.27299316 138.14009033 166.10848633 137.71768066 164.90869141 137.2824707 C161.89094247 136.21558752 158.86741243 135.20466013 155.8125 134.25 C155.10222656 134.02481689 154.39195312 133.79963379 153.66015625 133.56762695 C150.03417258 132.69588331 149.00315702 133.09102732 146.109375 135.50390625 Z M353.8125 254.25 C352.14947684 256.19327336 350.60000047 258.14769657 349.0625 260.1875 C344.686202 265.88074978 340.20683869 271.47076782 335.625 277 C331.34725921 282.17124726 327.09707627 287.35859418 322.921875 292.61328125 C320.13724316 296.09407105 317.31675028 299.54518783 314.5 303 C310.40672398 308.02351263 306.35888425 313.07685316 302.375 318.1875 C297.15684478 324.87400871 291.76692011 331.41232084 286.36328125 337.94921875 C278.86188033 347.02511432 271.42573342 356.15005089 264.1875 365.4375 C260.22718342 370.51891721 256.13039084 375.45794484 251.94140625 380.35180664 C248.0995202 384.8606868 244.43396753 389.49319968 240.79248047 394.16455078 C237.34046049 398.59056429 233.81523873 402.94957129 230.25 407.28515625 C223.20695612 415.85193558 216.19505564 424.44173709 209.375 433.1875 C204.15671234 439.87390928 198.76692389 446.41231627 193.36328125 452.94921875 C185.86188033 462.02511432 178.42573342 471.15005089 171.1875 480.4375 C167.22718342 485.51891721 163.13039084 490.45794484 158.94140625 495.35180664 C155.0995202 499.8606868 151.43396753 504.49319968 147.79248047 509.16455078 C144.34046049 513.59056429 140.81523873 517.94957129 137.25 522.28515625 C130.14058998 530.93265979 123.06705952 539.60563305 116.1875 548.4375 C112.66029917 552.96345828 109.04276636 557.38998273 105.3125 561.75 C97.44019931 570.95336603 90.01588212 580.51569984 82.8125 590.25 C85.5123843 593.6061716 89.13263392 594.83399799 93.01953125 596.375 C93.75515793 596.67394165 94.49078461 596.9728833 95.248703 597.28088379 C96.85561002 597.93287206 98.46393865 598.58136482 100.07348633 599.22680664 C102.6721679 600.268915 105.26717039 601.31973124 107.86132812 602.37304688 C110.62680019 603.49588559 113.39246807 604.6182089 116.15921021 605.73791504 C125.76272499 609.62573598 135.33677815 613.58381054 144.9090271 617.54785156 C149.78212996 619.56550187 154.65659025 621.57986456 159.53125 623.59375 C160.48642014 623.98836426 161.44159027 624.38297852 162.42570496 624.78955078 C171.71483272 628.62550225 181.01275101 632.43988612 190.3125 636.25 C205.4714185 642.46061986 220.61528917 648.70712806 235.75424194 654.96624756 C249.8194125 660.7809808 263.89429711 666.57136142 277.97888184 672.33889771 C292.99170891 678.48766858 307.97848613 684.6985824 322.95629883 690.93212891 C324.61149084 691.62011731 326.26668289 692.3081056 327.921875 692.99609375 C329.05797462 693.46986198 329.05797462 693.46986198 330.21702576 693.95320129 C333.06331295 695.13566733 335.88735831 696.27495277 338.8125 697.25 C337.24738302 702.45022737 333.94864483 706.00322992 330.5 710.0625 C329.22342647 711.58809678 327.94739702 713.11414897 326.671875 714.640625 C326.02541016 715.41083984 325.37894531 716.18105469 324.71289062 716.97460938 C321.85783034 720.39305257 319.05208065 723.85060088 316.25 727.3125 C315.17847836 728.63418994 314.10686365 729.95580443 313.03515625 731.27734375 C312.5055127 731.9307373 311.97586914 732.58413086 311.43017578 733.25732422 C309.7885329 735.27952301 308.14288484 737.29839838 306.49609375 739.31640625 C301.33447568 745.64590405 296.20705769 751.99456612 291.1875 758.4375 C287.22375249 763.523522 283.12260256 768.46633485 278.93041992 773.36499023 C275.21203824 777.72953203 271.66744744 782.21238696 268.1484375 786.73828125 C264.45091255 791.47736253 260.64744218 796.12167526 256.8125 800.75 C252.57599836 805.86469611 248.39163095 811.00886142 244.3125 816.25 C239.6527126 822.23720458 234.84317485 828.09093469 230.00390625 833.93359375 C226.37548581 838.32422068 222.81097698 842.75529375 219.3125 847.25 C214.11848364 853.91869458 208.74843705 860.43452596 203.36328125 866.94921875 C195.92847764 875.94453866 188.55396742 884.9863624 181.375 894.1875 C176.15652124 900.8737655 170.76692923 907.41230981 165.36328125 913.94921875 C157.92847764 922.94453866 150.55396742 931.9863624 143.375 941.1875 C138.15652124 947.8737655 132.76692923 954.41230981 127.36328125 960.94921875 C119.92847764 969.94453866 112.55396742 978.9863624 105.375 988.1875 C100.15652124 994.8737655 94.76692923 1001.41230981 89.36328125 1007.94921875 C81.92847764 1016.94453866 74.55396742 1025.9863624 67.375 1035.1875 C62.15652124 1041.8737655 56.76692923 1048.41230981 51.36328125 1054.94921875 C43.86188033 1064.02511432 36.42573342 1073.15005089 29.1875 1082.4375 C25.22718342 1087.51891721 21.13039084 1092.45794484 16.94140625 1097.35180664 C13.1056181 1101.85353023 9.4450378 1106.47805322 5.81005859 1111.14257812 C0.60344138 1117.81993823 -4.72763177 1124.39294029 -10.25 1130.8125 C-12.39491471 1132.99198614 -12.39491471 1132.99198614 -12.1875 1135.25 C81.69106538 1136.56723837 173.57068795 1114.61027507 287.8125 1047.25 C288.8029834 1046.5703418 288.8029834 1046.5703418 289.81347656 1045.87695312 C309.95553693 1032.01799889 328.75080954 1016.70875121 346.8125 1000.25 C347.69808594 999.45722656 348.58367187 998.66445313 349.49609375 997.84765625 C355.70324666 992.24690091 361.70253486 986.46377908 367.625 980.5625 C368.33019775 979.86189453 369.03539551 979.16128906 369.76196289 978.43945312 C373.76113697 974.42848764 377.57965417 970.3148539 381.27807617 966.02514648 C383.15988297 963.84811908 385.11014495 961.73877024 387.0625 959.625 C392.10065391 954.03460325 396.69792589 948.14967328 401.29394531 942.19677734 C402.8400653 940.21466147 404.41264443 938.25633775 405.9921875 936.30078125 C420.04604568 918.77355953 432.74426722 899.8035272 443.8125 880.25 C444.20308594 879.56212402 444.59367187 878.87424805 444.99609375 878.16552734 C447.56907386 873.61772488 450.09963155 869.04813568 452.60253906 864.46142578 C453.73336013 862.39464264 454.87760508 860.33582706 456.0234375 858.27734375 C485.86743208 804.01921004 502.93765319 742.41233437 510.125 681.125 C510.24710342 680.08517975 510.24710342 680.08517975 510.37167358 679.02435303 C512.48024109 660.7958155 513.05319106 642.77185169 513.0625 624.4375 C513.06317474 623.24025299 513.06384949 622.04300598 513.06454468 620.80947876 C513.04697143 601.1134758 512.32404958 581.78863055 509.8125 562.25 C509.72764343 561.57763306 509.64278687 560.90526611 509.55535889 560.21252441 C498.87217164 475.8929824 467.43917753 392.76172276 416.8125 324.25 C416.03648437 323.19167969 415.26046875 322.13335937 414.4609375 321.04296875 C412.27102183 318.09083861 410.05173976 315.16487245 407.8125 312.25 C407.39677734 311.70811035 406.98105469 311.1662207 406.55273438 310.60791016 C393.70200503 293.90672154 379.87583126 277.99731732 364.8125 263.25 C359.8125 258.25 359.8125 258.25 357.625 255.9375 C355.98127727 254.02286049 355.98127727 254.02286049 353.8125 254.25 Z M34.8125 700.25 C33.43499933 701.59880586 33.43499933 701.59880586 32.0546875 703.3984375 C31.24644531 704.40390625 31.24644531 704.40390625 30.421875 705.4296875 C29.84953125 706.15414062 29.2771875 706.87859375 28.6875 707.625 C28.09710937 708.36234375 27.50671875 709.0996875 26.8984375 709.859375 C25.19768468 711.98531603 23.50435456 714.11697563 21.8125 716.25 C20.47974929 717.9171326 19.14653144 719.58389206 17.8125 721.25 C17.20019531 722.01828125 16.58789062 722.7865625 15.95703125 723.578125 C13.71386271 726.37289236 11.4519877 729.15175056 9.18774414 731.92944336 C4.53093906 737.64250049 -0.09354251 743.3744097 -4.625 749.1875 C-9.84315522 755.87400871 -15.23307989 762.41232084 -20.63671875 768.94921875 C-28.13811967 778.02511432 -35.57426658 787.15005089 -42.8125 796.4375 C-46.77281658 801.51891721 -50.86960916 806.45794484 -55.05859375 811.35180664 C-58.9004798 815.8606868 -62.56603247 820.49319968 -66.20751953 825.16455078 C-69.65953951 829.59056429 -73.18476127 833.94957129 -76.75 838.28515625 C-83.79304388 846.85193558 -90.80494436 855.44173709 -97.625 864.1875 C-102.84328766 870.87390928 -108.23307611 877.41231627 -113.63671875 883.94921875 C-121.13811967 893.02511432 -128.57426658 902.15005089 -135.8125 911.4375 C-139.77281658 916.51891721 -143.86960916 921.45794484 -148.05859375 926.35180664 C-151.9004798 930.8606868 -155.56603247 935.49319968 -159.20751953 940.16455078 C-162.65953951 944.59056429 -166.18476127 948.94957129 -169.75 953.28515625 C-176.79304388 961.85193558 -183.80494436 970.44173709 -190.625 979.1875 C-195.84328766 985.87390928 -201.23307611 992.41231627 -206.63671875 998.94921875 C-214.13811967 1008.02511432 -221.57426658 1017.15005089 -228.8125 1026.4375 C-232.33984036 1030.96337253 -235.95744405 1035.38978214 -239.6875 1039.75 C-243.63309748 1044.36705248 -247.48271204 1049.04857502 -251.25 1053.8125 C-251.71535156 1054.39644531 -252.18070312 1054.98039062 -252.66015625 1055.58203125 C-254.83509519 1058.35248919 -256.78434725 1061.00768659 -258.1875 1064.25 C-224.69233916 1086.48802431 -186.21683945 1100.93007858 -148.1875 1113.25 C-143.96900367 1109.19739959 -140.25884864 1104.84205873 -136.5625 1100.3125 C-135.94568359 1099.56033203 -135.32886719 1098.80816406 -134.69335938 1098.03320312 C-130.51807235 1092.92527701 -126.42231708 1087.76062659 -122.36816406 1082.55639648 C-117.60436109 1076.46153092 -112.6665456 1070.51274955 -107.73828125 1064.55078125 C-100.30347764 1055.55546134 -92.92896742 1046.5136376 -85.75 1037.3125 C-80.53551416 1030.63135051 -75.1504583 1024.09753698 -69.75 1017.56640625 C-62.19123823 1008.4218758 -54.72633794 999.19978403 -47.33203125 989.921875 C-45.08886271 987.12710764 -42.8269877 984.34824944 -40.56274414 981.57055664 C-35.90593906 975.85749951 -31.28145749 970.1255903 -26.75 964.3125 C-21.53583748 957.63110752 -16.15044914 951.0975259 -10.75 944.56640625 C-3.19123823 935.4218758 4.27366206 926.19978403 11.66796875 916.921875 C13.91113729 914.12710764 16.1730123 911.34824944 18.43725586 908.57055664 C23.09406094 902.85749951 27.71854251 897.1255903 32.25 891.3125 C37.46416252 884.63110752 42.84955086 878.0975259 48.25 871.56640625 C55.80876177 862.4218758 63.27366206 853.19978403 70.66796875 843.921875 C72.91113729 841.12710764 75.1730123 838.34824944 77.43725586 835.57055664 C82.09406094 829.85749951 86.71854251 824.1255903 91.25 818.3125 C96.46416252 811.63110752 101.84955086 805.0975259 107.25 798.56640625 C114.79984348 789.43266508 122.26103705 780.22491499 129.640625 770.953125 C131.43129544 768.72444884 133.23494257 766.50822308 135.046875 764.296875 C135.62566406 763.58917969 136.20445312 762.88148438 136.80078125 762.15234375 C137.94694482 760.75204192 139.09527039 759.353506 140.24609375 757.95703125 C140.77847656 757.30605469 141.31085938 756.65507813 141.859375 755.984375 C142.33213867 755.40913086 142.80490234 754.83388672 143.29199219 754.24121094 C145.2624456 751.66076488 147.03177224 748.96371799 148.8125 746.25 C147.87196777 745.86481201 146.93143555 745.47962402 145.96240234 745.08276367 C126.96842767 737.30261542 107.9834223 729.50129963 89.01531982 721.65826416 C80.61569278 718.18566364 72.21431843 714.71729456 63.8125 711.25 C63.03003906 710.92696899 62.24757813 710.60393799 61.44140625 710.27111816 C56.81741625 708.3625703 52.19088408 706.46036717 47.5625 704.5625 C46.4684082 704.11092529 45.37431641 703.65935059 44.24707031 703.1940918 C42.78672363 702.59721558 42.78672363 702.59721558 41.296875 701.98828125 C40.46897461 701.64837158 39.64107422 701.30846191 38.78808594 700.95825195 C36.84850545 700.13750966 36.84850545 700.13750966 34.8125 700.25 Z " fill="#FF153C" transform="translate(622.1875,-0.24999999999999997)"/>
<path d="M0 0 C8.99159664 6.74369748 8.99159664 6.74369748 12.4375 10.27734375 C13.18773438 11.03853516 13.93796875 11.79972656 14.7109375 12.58398438 C15.46632813 13.36064453 16.22171875 14.13730469 17 14.9375 C21.8944015 19.94465648 26.81532004 24.79183557 32.12890625 29.35375977 C35.059542 31.93221447 37.77333358 34.70936487 40.5 37.5 C44.50655128 41.55704197 48.5588933 45.439992 52.91015625 49.12890625 C56.27573064 52.14219622 59.40689608 55.3872099 62.58056641 58.60009766 C65.28428749 61.3242821 68.00749731 63.95350194 70.9375 66.4375 C75.2786307 70.12610166 79.21834341 74.19243757 83.22021484 78.23974609 C86.66020488 81.70370123 90.18544944 84.97117384 93.91015625 88.12890625 C97.27573064 91.14219622 100.40689608 94.3872099 103.58056641 97.60009766 C106.28428749 100.3242821 109.00749731 102.95350194 111.9375 105.4375 C115.65957693 108.60009982 119.06866072 112.02970696 122.5 115.5 C125.91070324 118.94937883 129.29621484 122.36119902 133 125.5 C137.32339894 129.16389741 141.23937981 133.21371646 145.22045898 137.23999023 C148.66036521 140.70386446 152.1855385 143.97124934 155.91015625 147.12890625 C159.27573064 150.14219622 162.40689608 153.3872099 165.58056641 156.60009766 C168.28428749 159.3242821 171.00749731 161.95350194 173.9375 164.4375 C178.2786307 168.12610166 182.21834341 172.19243757 186.22021484 176.23974609 C189.66020488 179.70370123 193.18544944 182.97117384 196.91015625 186.12890625 C200.27573064 189.14219622 203.40689608 192.3872099 206.58056641 195.60009766 C209.28428749 198.3242821 212.00749731 200.95350194 214.9375 203.4375 C219.2786307 207.12610166 223.21834341 211.19243757 227.22021484 215.23974609 C230.66020488 218.70370123 234.18544944 221.97117384 237.91015625 225.12890625 C241.27573064 228.14219622 244.40689608 231.3872099 247.58056641 234.60009766 C250.28428749 237.3242821 253.00749731 239.95350194 255.9375 242.4375 C259.65957693 245.60009982 263.06866072 249.02970696 266.5 252.5 C269.91070324 255.94937883 273.29621484 259.36119902 277 262.5 C281.32339894 266.16389741 285.23937981 270.21371646 289.22045898 274.23999023 C292.66036521 277.70386446 296.1855385 280.97124934 299.91015625 284.12890625 C303.22817811 287.09962114 306.32967822 290.28656583 309.43774414 293.47485352 C313.46879657 297.57711869 317.62890801 301.17529451 322 305 C322.33 208.31 322.66 111.62 323 12 C348.08 12 373.16 12 399 12 C399 163.47 399 314.94 399 471 C394.93108174 468.96554087 392.07343245 466.51544281 388.8125 463.4375 C388.23733643 462.9010083 387.66217285 462.3645166 387.06958008 461.81176758 C382.967476 457.96615235 378.9861355 454.01229747 375.0390625 450.0078125 C373.10736158 448.10571619 371.12086406 446.32564053 369.0625 444.5625 C365.8896408 441.84380752 362.93661618 438.97248325 360 436 C357.10408042 433.06881809 354.19757429 430.23596826 351.0625 427.5625 C347.71074904 424.69827645 344.59443583 421.63665907 341.5 418.5 C338.42609473 415.38420877 335.33297855 412.34122762 332 409.5 C328.14956985 406.2176661 324.61854421 402.64745151 321.06860352 399.04907227 C317.84633552 395.79999393 314.50659355 392.77556137 311.02734375 389.80859375 C307.68120064 386.82349884 304.58406048 383.59117232 301.43359375 380.40234375 C299.36757635 378.36285627 297.26994451 376.444922 295.0625 374.5625 C291.19382202 371.25653882 287.63935695 367.66855322 284.06884766 364.04931641 C280.84649591 360.80015827 277.50668184 357.77563666 274.02734375 354.80859375 C270.68120064 351.82349884 267.58406048 348.59117232 264.43359375 345.40234375 C262.36757635 343.36285627 260.26994451 341.444922 258.0625 339.5625 C254.71074904 336.69827645 251.59443583 333.63665907 248.5 330.5 C245.42609473 327.38420877 242.33297855 324.34122762 239 321.5 C235.14956985 318.2176661 231.61854421 314.64745151 228.06860352 311.04907227 C224.84633552 307.79999393 221.50659355 304.77556137 218.02734375 301.80859375 C214.68120064 298.82349884 211.58406048 295.59117232 208.43359375 292.40234375 C206.36757635 290.36285627 204.26994451 288.444922 202.0625 286.5625 C198.71074904 283.69827645 195.59443583 280.63665907 192.5 277.5 C189.42609473 274.38420877 186.33297855 271.34122762 183 268.5 C179.14956985 265.2176661 175.61854421 261.64745151 172.06860352 258.04907227 C168.84633552 254.79999393 165.50659355 251.77556137 162.02734375 248.80859375 C158.68120064 245.82349884 155.58406048 242.59117232 152.43359375 239.40234375 C150.36757635 237.36285627 148.26994451 235.444922 146.0625 233.5625 C142.19382202 230.25653882 138.63935695 226.66855322 135.06884766 223.04931641 C131.84649591 219.80015827 128.50668184 216.77563666 125.02734375 213.80859375 C121.68120064 210.82349884 118.58406048 207.59117232 115.43359375 204.40234375 C113.36757635 202.36285627 111.26994451 200.444922 109.0625 198.5625 C105.71074904 195.69827645 102.59443583 192.63665907 99.5 189.5 C96.42609473 186.38420877 93.33297855 183.34122762 90 180.5 C84.7664196 175.92061715 79.91737283 170.91737283 75 166 C74.67 262.03 74.34 358.06 74 457 C49.58 457 25.16 457 0 457 C0 306.19 0 155.38 0 0 Z " fill="#AAAAAA" transform="translate(3595,378)"/>
<path d="M0 0 C0.70412521 0.54247375 1.40825043 1.08494751 2.13371277 1.64385986 C4.74205934 4.93683103 4.45717324 7.84462763 4.28637695 11.85449219 C4.26906021 12.64201874 4.25174347 13.42954529 4.23390198 14.24093628 C4.17166483 16.84384819 4.08025205 19.44485762 3.98828125 22.046875 C3.9384451 23.86040805 3.89030798 25.67398852 3.84379578 27.48760986 C3.71617178 32.26589065 3.56328693 37.04305731 3.40582275 41.82043457 C3.28207051 45.70523535 3.1763781 49.59042624 3.07168293 53.47578049 C2.94598947 58.12466245 2.81195908 62.77328963 2.67578125 67.421875 C2.63746909 68.74277256 2.63746909 68.74277256 2.59838295 70.09035492 C2.52353848 72.6030424 2.44305953 75.11548197 2.3605957 77.62792969 C2.33920532 78.35964386 2.31781494 79.09135803 2.29577637 79.84524536 C2.13119859 84.61561673 1.64949437 89.27057008 1 94 C0.57372314 93.63285889 0.14744629 93.26571777 -0.29174805 92.88745117 C-38.10303762 60.38973276 -83.56662322 40.41236994 -134 39 C-134.64855957 38.97421875 -135.29711914 38.9484375 -135.96533203 38.921875 C-154.48090892 38.23340363 -172.59759149 40.5653346 -190 47 C-191.06476563 47.38027344 -192.12953125 47.76054687 -193.2265625 48.15234375 C-205.13975097 52.72368351 -217.40323393 59.90027942 -223.33984375 71.65234375 C-228.33209321 83.75099813 -228.15098331 95.54705006 -224 108 C-216.22842363 125.11683642 -199.85440197 133.60323174 -183 140 C-171.1228454 144.32902648 -159.14061893 147.62472267 -146.8125 150.375 C-145.12516749 150.75861482 -143.43791344 151.1425749 -141.75073242 151.52685547 C-129.80532225 154.22940265 -117.81744287 156.70328436 -105.8125 159.125 C-7.19512483 179.05201086 -7.19512483 179.05201086 19.88720703 219.27294922 C38.49364305 248.15007261 41.7135061 284.08295476 35 317.30859375 C32.57405965 328.13027145 28.89047106 338.06554533 24 348 C23.52820312 348.98226563 23.05640625 349.96453125 22.5703125 350.9765625 C10.53661847 374.56804175 -10.85007379 392.0073993 -34 404 C-34.64662598 404.33628418 -35.29325195 404.67256836 -35.95947266 405.01904297 C-50.85736586 412.65264456 -66.12663908 417.38528436 -82.5 420.75 C-83.4590625 420.94875732 -84.418125 421.14751465 -85.40625 421.35229492 C-101.31422482 424.43684489 -117.26485385 425.3842849 -133.4375 425.3125 C-134.73119507 425.30976578 -134.73119507 425.30976578 -136.05102539 425.30697632 C-187.09610207 425.12678546 -242.16040843 413.41326594 -283 381 C-284.55178452 379.98012749 -284.55178452 379.98012749 -286.13491821 378.93965149 C-288.02329331 377.34677331 -288.8820743 376.42836828 -289.54235458 374.02988243 C-289.73921774 371.57121795 -289.74227079 369.17759367 -289.68115234 366.71166992 C-289.6820285 365.78435059 -289.68290466 364.85703125 -289.68380737 363.90161133 C-289.67963502 360.84369984 -289.63299904 357.78799585 -289.5859375 354.73046875 C-289.57474413 352.60770364 -289.56620461 350.484923 -289.56021118 348.36213684 C-289.53732422 342.78041641 -289.47840108 337.19963576 -289.4119873 331.61828613 C-289.35056253 325.92078362 -289.32319568 320.22312895 -289.29296875 314.52539062 C-289.22865858 303.34984796 -289.12627984 292.17500219 -289 281 C-285.09992542 282.81124922 -282.37160306 285.347014 -279.3125 288.3125 C-235.54858331 329.53156561 -180.36268883 348.44600052 -120.83886719 347.13183594 C-96.00454565 346.27896557 -71.49418095 338.6073968 -52 323 C-51.19691406 322.37351562 -50.39382813 321.74703125 -49.56640625 321.1015625 C-43.63791959 316.20281298 -39.67862861 310.72919868 -36 304 C-35.63777344 303.36707031 -35.27554687 302.73414063 -34.90234375 302.08203125 C-31.05717137 293.98034247 -31.86576986 282.27769043 -34.625 274 C-41.34055972 258.34596009 -54.92645098 250.33537924 -70.04833984 244.1640625 C-93.1798949 235.15451972 -117.4502713 230.46943824 -141.71057129 225.68945312 C-157.86514209 222.50563371 -173.93640438 219.23020654 -189.8203125 214.8671875 C-190.95835327 214.55516388 -192.09639404 214.24314026 -193.2689209 213.92166138 C-229.98468641 203.51273845 -265.39932394 184.95668891 -285 151 C-301.0322286 121.25273022 -303.69672646 83.35759412 -294.10083008 51.21289062 C-289.40008429 36.47661389 -282.35298054 23.5224839 -272 12 C-271.42765625 11.29746094 -270.8553125 10.59492188 -270.265625 9.87109375 C-265.51025799 4.08539722 -259.92624051 -0.45353304 -254 -5 C-253.46987305 -5.41040527 -252.93974609 -5.82081055 -252.39355469 -6.24365234 C-187.72899705 -55.89884341 -61.89368278 -55.01660692 0 0 Z " fill="#AAAAAA" transform="translate(1797,421)"/>
<path d="M0 0 C7.13132171 6.73623463 12.15985662 14.08469944 17.1328125 22.4765625 C18.1228125 24.1265625 19.1128125 25.7765625 20.1328125 27.4765625 C20.4628125 12.2965625 20.7928125 -2.8834375 21.1328125 -18.5234375 C46.2128125 -18.5234375 71.2928125 -18.5234375 97.1328125 -18.5234375 C97.1328125 81.1365625 97.1328125 180.7965625 97.1328125 283.4765625 C72.0528125 283.4765625 46.9728125 283.4765625 21.1328125 283.4765625 C20.8028125 266.9765625 20.4728125 250.4765625 20.1328125 233.4765625 C17.1628125 238.7565625 14.1928125 244.0365625 11.1328125 249.4765625 C8.19136244 253.33224704 5.36592763 256.91230895 2.1328125 260.4765625 C1.59527344 261.0953125 1.05773438 261.7140625 0.50390625 262.3515625 C-18.84962498 283.30576173 -47.51333248 291.04755977 -74.99609375 292.66015625 C-115.25080555 293.61193664 -151.86256664 276.60033764 -180.8671875 249.4765625 C-211.02179566 219.71244567 -227.42396297 177.7793552 -228.21850586 135.73779297 C-228.50943195 89.53153169 -213.02247298 47.99347245 -180.8671875 14.4765625 C-160.12415262 -6.07381261 -134.40106464 -19.60860255 -105.8671875 -25.5234375 C-104.8359375 -25.74902344 -103.8046875 -25.97460938 -102.7421875 -26.20703125 C-66.19632629 -32.83096859 -28.02652257 -24.66639452 0 0 Z M-122.8671875 70.4765625 C-140.68565961 90.45910772 -145.84432663 115.37579082 -145.04199219 141.45166016 C-143.70048405 164.66574644 -131.82919875 186.87393372 -114.8671875 202.4765625 C-104.76740881 211.03858086 -92.08491023 217.66056233 -78.8671875 219.4765625 C-77.99191406 219.60933594 -77.11664062 219.74210938 -76.21484375 219.87890625 C-56.0248091 222.29087012 -37.17049454 215.87807292 -21.32421875 203.48828125 C-3.73171305 188.56874541 7.70854816 166.4213674 10.1328125 143.4765625 C11.49395356 117.23603595 6.31710456 93.04448729 -10.8671875 72.4765625 C-11.38796875 71.81011719 -11.90875 71.14367187 -12.4453125 70.45703125 C-24.53691192 55.57732031 -42.74496413 46.73820581 -61.59130859 44.76953125 C-85.48528289 42.78844493 -106.60423415 53.40902093 -122.8671875 70.4765625 Z " fill="#AAAAAA" transform="translate(2544.8671875,551.5234375)"/>
<path d="M0 0 C24.75 0 49.5 0 75 0 C75.33 61.71 75.66 123.42 76 187 C78.64 183.04 81.28 179.08 84 175 C86.9484471 171.56014505 89.87298638 168.25937398 93 165 C93.98806641 163.93458984 93.98806641 163.93458984 94.99609375 162.84765625 C99.84242137 157.76730073 105.11695293 153.81091717 111 150 C112.15435547 149.22849609 112.15435547 149.22849609 113.33203125 148.44140625 C139.22483669 131.90951554 172.36495436 130.37395694 201.80517578 136.50390625 C218.52447083 140.28295047 234.72766663 147.00950312 248 158 C248.83789062 158.68707031 249.67578125 159.37414062 250.5390625 160.08203125 C276.26427635 182.18341466 287.62173409 215.041636 291 248 C291.44934586 254.77898755 291.38299904 261.56437784 291.34057617 268.35449219 C291.33972707 270.2983041 291.34021054 272.24211698 291.34190369 274.18592834 C291.34275405 279.39334291 291.32528628 284.60054434 291.30418181 289.80790997 C291.28525252 295.27575752 291.28365191 300.74361155 291.28010559 306.21148682 C291.27083237 316.53462165 291.24628347 326.8576596 291.21605712 337.18075204 C291.18236486 348.94639546 291.16599006 360.71204384 291.15097082 372.4777236 C291.11972896 396.65188159 291.06477695 420.82590701 291 445 C266.58 445 242.16 445 217 445 C216.95101562 433.02074219 216.90203125 421.04148437 216.8515625 408.69921875 C216.81615307 401.08397739 216.78025813 393.46874338 216.7421875 385.85351562 C216.68192648 373.78167436 216.62357723 361.70984678 216.578125 349.63793945 C216.54500307 340.84333386 216.50506324 332.04878903 216.45720994 323.25425082 C216.43214393 318.60516438 216.41030604 313.95611718 216.39665604 309.30698204 C216.38365236 304.91488062 216.36140925 300.52291526 216.33261681 296.13088989 C216.32368172 294.53439129 216.31788459 292.93787087 216.31578636 291.34134865 C216.27839521 267.17301173 215.08605983 238.65835339 197.75 219.875 C185.90404797 209.22786645 169.40513672 205.63263615 153.828125 205.84765625 C130.99589128 207.07756939 112.10821729 216.21675206 96.3125 232.6875 C80.32301612 251.1655082 75.54028052 274.12260115 75.56762695 297.87109375 C75.55858177 299.48920424 75.54824795 301.10730796 75.53674316 302.72540283 C75.50947006 307.06317877 75.49992966 311.4008237 75.49388909 315.73867416 C75.48442701 320.29238702 75.45821814 324.84600492 75.43388367 329.3996582 C75.39042844 337.99810312 75.36175327 346.59652939 75.33856028 355.19505024 C75.30630299 366.83156813 75.25086481 378.46797501 75.19681454 390.10440826 C75.11242311 408.40290555 75.05870139 426.70136047 75 445 C50.25 445 25.5 445 0 445 C0 298.15 0 151.3 0 0 Z " fill="#AAAAAA" transform="translate(3019,390)"/>
<path d="M0 0 C3.68105084 1.22701695 3.80651904 1.98858425 5.49609375 5.35546875 C5.96595703 6.27650391 6.43582031 7.19753906 6.91992188 8.14648438 C7.42072266 9.15001953 7.92152344 10.15355469 8.4375 11.1875 C9.51766383 13.30694234 10.59974286 15.42540954 11.68359375 17.54296875 C12.23515137 18.62368652 12.78670898 19.7044043 13.35498047 20.81787109 C15.82212908 25.59032805 18.40589514 30.29569801 21 35 C25.62007521 43.4065036 30.08895767 51.88229862 34.50219727 60.39892578 C37.89940696 66.93707704 41.38782443 73.41850348 44.9375 79.875 C49.81026441 88.74036981 54.49920911 97.69115413 59.14208984 106.67871094 C63.16677837 114.44928006 67.32153609 122.13982085 71.53759766 129.80786133 C75.74113433 137.47350265 79.80067376 145.20974268 83.81665039 152.97509766 C86.7456009 158.63195707 89.76310103 164.22558545 92.88525391 169.77856445 C94 172 94 172 94 174 C94.66 174 95.32 174 96 174 C96.17269409 173.32915878 96.34538818 172.65831757 96.52331543 171.96714783 C98.28507039 165.29633456 100.38157708 158.84476473 102.78125 152.37890625 C103.14687042 151.38218399 103.51249084 150.38546173 103.88919067 149.35853577 C105.08859911 146.09163119 106.2943041 142.82708873 107.5 139.5625 C108.35122119 137.24740675 109.20196112 134.93213649 110.05224609 132.61669922 C111.81916537 127.80613977 113.58815225 122.99634781 115.35839844 118.18701172 C117.87765019 111.33835098 120.38297366 104.48467363 122.8828125 97.62890625 C123.27701385 96.54788132 123.67121521 95.46685638 124.07736206 94.35307312 C124.86752284 92.18612012 125.65767386 90.01916355 126.44781494 87.85220337 C133.13734968 69.51312499 139.86393798 51.18782562 146.625 32.875 C146.99538391 31.87075989 147.36576782 30.86651978 147.74737549 29.83184814 C148.78082941 27.03065478 149.8158899 24.2300612 150.8515625 21.4296875 C151.15787598 20.59906799 151.46418945 19.76844849 151.77978516 18.91265869 C153.88483163 13.23033674 153.88483163 13.23033674 155 11 C180.74 11 206.48 11 233 11 C229.625046 21.12486199 229.625046 21.12486199 228.26098633 24.44189453 C227.95184799 25.19779373 227.64270966 25.95369293 227.32420349 26.73249817 C226.99678665 27.5246019 226.66936981 28.31670563 226.33203125 29.1328125 C225.80459068 30.41903755 225.80459068 30.41903755 225.26649475 31.73124695 C224.11792977 34.53031003 222.96523209 37.32765079 221.8125 40.125 C221.00183672 42.09843678 220.19145681 44.07198998 219.38134766 46.0456543 C217.72435619 50.08136298 216.06576488 54.11640811 214.40576172 58.15087891 C212.20555254 63.49878777 210.00984939 68.84853172 207.81640625 74.19921875 C205.18505149 80.61778673 202.55235758 87.03580167 199.91796875 93.453125 C197.31423901 99.79598814 194.71284674 106.13980411 192.11328125 112.484375 C184.97772756 129.89673174 177.8156182 147.29780609 170.625 164.6875 C164.32433198 179.92536729 158.05091812 195.17403882 151.8125 210.4375 C151.43964874 211.34972321 151.06679749 212.26194641 150.68264771 213.20181274 C149.19681441 216.83730915 147.71111207 220.47285904 146.22557068 224.10847473 C136.86382626 247.01801363 127.46084217 269.91061952 118.0229187 292.78887939 C117.18343585 294.82415889 116.34433622 296.85959649 115.50564575 298.89520264 C114.33312684 301.74054353 113.15897144 304.58520372 111.984375 307.4296875 C111.6402507 308.26552368 111.2961264 309.10135986 110.9415741 309.96252441 C108.71473495 315.3485074 106.39272795 320.68566399 104 326 C103.34 326 102.68 326 102 326 C101.58339111 325.21165771 101.16678223 324.42331543 100.73754883 323.61108398 C90.36746456 303.99921145 90.36746456 303.99921145 79.5625 284.625 C73.95578856 274.83107572 68.66070684 264.88866611 63.39675903 254.90826416 C58.88777224 246.36480222 54.30394566 237.88264255 49.5 229.5 C44.30384086 220.43296473 39.37469332 211.24212605 34.5 202 C29.07619807 191.71792386 23.54307157 181.52163352 17.77075195 171.42944336 C11.29252647 160.07385665 5.15450637 148.53325804 -1 137 C-3.31086616 139.92017574 -5.0843518 142.88139046 -6.78515625 146.19140625 C-7.31052979 147.2086377 -7.83590332 148.22586914 -8.37719727 149.27392578 C-9.21142212 150.90177002 -9.21142212 150.90177002 -10.0625 152.5625 C-11.23918893 154.84265149 -12.41627562 157.12259776 -13.59375 159.40234375 C-14.17382812 160.52753418 -14.75390625 161.65272461 -15.3515625 162.81201172 C-17.56615703 167.09491684 -19.81029665 171.36178507 -22.0625 175.625 C-25.72821087 182.57303547 -29.36952474 189.53349005 -33 196.5 C-37.05338191 204.27760736 -41.12266037 212.04646456 -45.21533203 219.8034668 C-47.44612191 224.03523711 -49.66419501 228.2732154 -51.8671875 232.51953125 C-56.65029447 241.73469147 -61.47732486 250.91297508 -66.5 260 C-73.19473674 272.12913987 -79.44340531 284.48810432 -85.70703125 296.84375 C-90.89116453 307.04427918 -96.30181193 317.07721934 -102 327 C-104.52839846 324.75104446 -105.72045673 322.74623949 -106.9543457 319.60913086 C-107.48767014 318.27053261 -107.48767014 318.27053261 -108.0317688 316.90489197 C-108.59805496 315.4495681 -108.59805496 315.4495681 -109.17578125 313.96484375 C-109.57731415 312.95188736 -109.97884705 311.93893097 -110.39254761 310.89527893 C-111.25580311 308.71536436 -112.11558408 306.53407132 -112.97225952 304.3515625 C-115.22931502 298.60205063 -117.51132595 292.86243604 -119.7890625 287.12109375 C-120.24083359 285.98010223 -120.69260468 284.83911072 -121.1580658 283.6635437 C-124.75891838 274.57706694 -128.44202996 265.52765772 -132.1875 256.5 C-133.29779054 253.81938868 -134.40708006 251.13836491 -135.515625 248.45703125 C-135.79258209 247.78715179 -136.06953918 247.11727234 -136.35488892 246.42709351 C-140.09505083 237.3659509 -143.76392225 228.27578685 -147.4375 219.1875 C-147.79859863 218.29430054 -148.15969727 217.40110107 -148.53173828 216.48083496 C-150.33612448 212.01721546 -152.13989876 207.55334901 -153.94335938 203.08935547 C-157.02015383 195.47437894 -160.10256066 187.86168013 -163.1875 180.25 C-163.48395416 179.51841675 -163.78040833 178.7868335 -164.08584595 178.03308105 C-168.07598492 168.18805741 -172.07880433 158.34824549 -176.08984375 148.51171875 C-176.53692688 147.4153006 -176.98401001 146.31888245 -177.44464111 145.1892395 C-177.8987738 144.07556 -178.35290649 142.96188049 -178.82080078 141.81445312 C-188.05781987 119.1622923 -197.26286222 96.49769011 -206.40942383 73.80883789 C-207.26250182 71.6928587 -208.11561031 69.57689181 -208.96875 67.4609375 C-209.38545456 66.42740646 -209.80215912 65.39387543 -210.23149109 64.32902527 C-213.17240791 57.03948633 -216.12965632 49.75670402 -219.09375 42.4765625 C-220.28702347 39.54232893 -221.48011028 36.60801952 -222.67318726 33.67370605 C-223.4268407 31.82236675 -224.18172453 29.97152778 -224.93789673 28.12121582 C-225.96812317 25.60025511 -226.99425576 23.0776649 -228.01953125 20.5546875 C-228.32463623 19.81159332 -228.62974121 19.06849915 -228.9440918 18.30288696 C-231 13.22755288 -231 13.22755288 -231 11 C-204.6 11 -178.2 11 -151 11 C-144.97446861 26.06382847 -138.99524707 41.10754329 -133.26885986 56.28198242 C-131.2369171 61.66536762 -129.19648628 67.04553482 -127.15625 72.42578125 C-126.73477692 73.53752716 -126.31330383 74.64927307 -125.87905884 75.79470825 C-120.33808652 90.39789429 -114.71908987 104.97107455 -109.1027832 119.54541016 C-108.28332012 121.67218289 -107.46390213 123.79897299 -106.64453125 125.92578125 C-106.24849197 126.95372803 -105.8524527 127.9816748 -105.44441223 129.04077148 C-102.91151647 135.61967032 -100.39309199 142.2039228 -97.88671875 148.79296875 C-97.57561157 149.61016388 -97.26450439 150.42735901 -96.94396973 151.26931763 C-95.5232272 155.00184226 -94.10510878 158.73532166 -92.69189453 162.47070312 C-92.20746248 163.74483186 -91.72293175 165.01892309 -91.23828125 166.29296875 C-90.82618408 167.3811792 -90.41408691 168.46938965 -89.98950195 169.59057617 C-89.21742496 171.91106562 -89.21742496 171.91106562 -88 173 C-87.58229843 172.16126595 -87.58229843 172.16126595 -87.15615845 171.30558777 C-84.20513558 165.38107612 -81.25107924 159.45808369 -78.29541016 153.53588867 C-77.19895939 151.3380193 -76.10323237 149.1397887 -75.00830078 146.94116211 C-69.27750815 135.43492814 -63.50397951 123.96144564 -57.48013306 112.60551453 C-53.8676077 105.78561502 -50.40564955 98.89663775 -46.98123169 91.98077393 C-42.43862624 82.81079448 -37.8864664 73.65102772 -33.0625 64.625 C-27.97297082 55.09980476 -23.19373814 45.42135731 -18.3821106 35.75396729 C-12.73879701 24.42010663 -6.96991719 13.16595623 -1 2 C-0.67 1.34 -0.34 0.68 0 0 Z " fill="#AAAAAA" transform="translate(4979,522)"/>
<path d="M0 0 C24.42 0 48.84 0 74 0 C74.33 90.09 74.66 180.18 75 273 C77.97 269.7 80.94 266.4 84 263 C85.485 261.35 86.97 259.7 88.5 258 C89.23992187 257.17757813 89.97984375 256.35515625 90.7421875 255.5078125 C92.26708244 253.81407106 93.79315402 252.12138831 95.3203125 250.4296875 C98.69912708 246.68435744 102.06895965 242.93481793 105.375 239.125 C108.82783819 235.158251 112.38877381 231.29317331 115.95043945 227.42456055 C119.08517052 224.01401194 122.15726302 220.55840884 125.19140625 217.05859375 C128.2777948 213.54557698 131.44628778 210.10700182 134.59765625 206.65234375 C136.56941844 204.47539004 138.51365337 202.28161326 140.4375 200.0625 C143.86700919 196.11410526 147.40876823 192.27142542 150.95068359 188.42431641 C154.08531289 185.01383111 157.15733845 181.55832184 160.19140625 178.05859375 C163.2777948 174.54557698 166.44628778 171.10700182 169.59765625 167.65234375 C171.56941844 165.47539004 173.51365337 163.28161326 175.4375 161.0625 C178.98604955 156.96932893 182.66316 152.99714466 186.35717773 149.03540039 C188.98207106 146.23723206 188.98207106 146.23723206 191 143 C221.36 143 251.72 143 283 143 C281.06631091 146.86737817 278.85834675 149.53696338 275.9375 152.625 C274.93840325 153.69754528 273.93971093 154.77046743 272.94140625 155.84375 C272.44398926 156.37613281 271.94657227 156.90851563 271.43408203 157.45703125 C269.38918002 159.65719821 267.3808327 161.88922175 265.375 164.125 C264.64796875 164.93453125 263.9209375 165.7440625 263.171875 166.578125 C262.45515625 167.37734375 261.7384375 168.1765625 261 169 C255.72916984 174.87754442 250.42768328 180.72499827 245.08642578 186.53857422 C242.20606171 189.67631113 239.34483753 192.83003818 236.5 196 C233.18998278 199.6883049 229.852855 203.35065765 226.5 207 C221.63056955 212.30121923 216.80576976 217.64104811 212 223 C206.72916984 228.87754442 201.42768328 234.72499827 196.08642578 240.53857422 C192.47507691 244.47261255 188.89767184 248.43551741 185.33984375 252.41796875 C183.60046035 254.33738849 181.84564523 256.23151571 180.06640625 258.11328125 C179.56753906 258.64501953 179.06867188 259.17675781 178.5546875 259.72460938 C177.58528411 260.75618654 176.61030431 261.78256173 175.62890625 262.80273438 C171.69467555 266.85259399 171.69467555 266.85259399 170 272 C171.60309046 275.17583983 173.78914093 277.85125349 176 280.625 C177.31297838 282.33557042 178.62546503 284.04651836 179.9375 285.7578125 C180.61554688 286.62954102 181.29359375 287.50126953 181.9921875 288.39941406 C185.06613189 292.3808897 188.030402 296.44047836 191 300.5 C192.16606594 302.0837758 193.33273483 303.66710784 194.5 305.25 C201.5 314.75 208.5 324.25 215.5 333.75 C216.07758057 334.53383057 216.65516113 335.31766113 217.25024414 336.12524414 C218.41620806 337.70768185 219.58206104 339.29020131 220.74780273 340.87280273 C223.67431443 344.84551887 226.60277534 348.81676994 229.53515625 352.78515625 C235.27423642 360.55600091 240.98413928 368.34499834 246.625 376.1875 C251.15170536 382.47859939 255.7503164 388.7086361 260.41503906 394.89794922 C266.05962943 402.39150241 271.61238039 409.95217571 277.16943359 417.51074219 C280.33954854 421.82155734 283.51359974 426.12947154 286.6875 430.4375 C287.2757959 431.23647705 287.8640918 432.0354541 288.47021484 432.85864258 C289.29513428 433.97855591 289.29513428 433.97855591 290.13671875 435.12109375 C290.61842529 435.7752124 291.10013184 436.42933105 291.59643555 437.10327148 C292.59996198 438.45940244 293.63077609 439.79550982 294.67895508 441.11743164 C296 443 296 443 296 445 C285.22125517 445.30205269 274.44352638 445.53260925 263.66140175 445.67355824 C258.65376295 445.7412329 253.64903157 445.83290017 248.64306641 445.98071289 C243.8057776 446.12264069 238.97127198 446.19982488 234.132061 446.23340416 C232.2921809 446.25730977 230.4524428 446.30400089 228.61375809 446.37449074 C214.60519499 446.88986459 214.60519499 446.88986459 210.26199532 443.73921394 C206.77272924 440.26215729 204.42052861 436.25869354 202 432 C200.82993026 430.38472814 199.64121816 428.78241287 198.41796875 427.20703125 C197.33952403 425.74338109 196.2627076 424.27852982 195.1875 422.8125 C194.59984863 422.01352295 194.01219727 421.2145459 193.40673828 420.39135742 C188.81718354 414.14074493 184.28170285 407.85196848 179.75244141 401.55761719 C175.761468 396.0238229 171.69257778 390.55345712 167.5871582 385.10424805 C159.0519452 373.77000983 150.66114053 362.32988655 142.375 350.8125 C138.07286442 344.83555751 133.72498427 338.89602653 129.3125 333 C128.80702637 332.32300049 128.30155273 331.64600098 127.78076172 330.94848633 C125.94679375 328.50835499 124.16141832 326.16141832 122 324 C116.50754954 329.40306157 111.07254597 334.78582568 106.06640625 340.6484375 C103.15787544 343.95833457 100.13909205 347.16134387 97.125 350.375 C91.67938857 356.18728786 86.26226889 362.02014899 81 368 C80.50974335 368.39526382 80.01948669 368.79052765 79.51437378 369.19776917 C75.22741881 373.09712506 74.52985621 376.50382821 74.22705078 382.22045898 C74.1658351 385.14674116 74.17569248 388.06940082 74.1953125 390.99609375 C74.1842442 392.37897104 74.17050049 393.76182955 74.15405273 395.14465332 C74.11202179 400.2421048 74.12156872 405.3398764 74.125 410.4375 C74.08375 421.843125 74.0425 433.24875 74 445 C49.58 445 25.16 445 0 445 C0 298.15 0 151.3 0 0 Z " fill="#AAAAAA" transform="translate(5898,390)"/>
<path d="M0 0 C0.78870483 0.00432037 1.57740967 0.00864075 2.39001465 0.01309204 C42.43281616 0.27019275 78.33545075 15.63924099 107.125 43.375 C107.83011719 44.01695312 108.53523438 44.65890625 109.26171875 45.3203125 C132.49803017 67.09551712 145.49093337 99.70986477 152.5 130.0625 C152.66798096 130.78066895 152.83596191 131.49883789 153.0090332 132.23876953 C154.04901574 137.03808386 154.26827082 141.4652191 154.125 146.375 C140.51940877 150.14539015 126.78619693 153.36739237 113.05078125 156.625 C110.47368022 157.23784222 107.89661998 157.85085358 105.3196106 158.46408081 C99.15149427 159.93146013 92.98288308 161.39674757 86.81405926 162.86114943 C75.42063288 165.56583524 64.0279783 168.27377093 52.63520998 170.98122704 C49.06297519 171.83014185 45.49071096 172.67893241 41.91838646 173.52746964 C24.4007389 177.68847385 6.88630084 181.86243071 -10.62176323 186.06362152 C-16.51392268 187.47709921 -22.40672142 188.88791022 -28.29946232 190.29896164 C-33.66799192 191.58493285 -39.03534986 192.87566159 -44.40192032 194.16978264 C-47.66134084 194.95455741 -50.92184217 195.73476074 -54.18268204 196.51361465 C-55.66394053 196.86844715 -57.14473126 197.22523934 -58.62499619 197.58419418 C-60.61406833 198.06634002 -62.60496281 198.54094951 -64.59594727 199.01513672 C-65.69705338 199.27994843 -66.79815948 199.54476013 -67.93263245 199.81759644 C-70.66729475 200.33565222 -73.1014896 200.48684724 -75.875 200.375 C-64.88344702 221.53280164 -47.14096131 235.36555155 -24.66845703 243.13818359 C-1.1848222 250.45329493 21.13207831 247.73672294 42.8125 236.5625 C56.12533827 228.98828723 66.41933294 218.51132765 74.125 205.375 C75.27067012 203.47906803 76.41649426 201.58322912 77.5625 199.6875 C78.41819773 198.25091086 79.27297371 196.81376967 80.125 195.375 C94.33076826 201.65764935 108.39270466 208.23106975 122.43115234 214.87695312 C123.1505751 215.217034 123.86999786 215.55711487 124.61122131 215.90750122 C125.96107875 216.54573787 127.31043369 217.18503892 128.65916443 217.82565308 C132.77760915 219.77266435 136.92953889 221.60263105 141.125 223.375 C140.54420667 227.02500997 139.56367428 229.78442702 137.75390625 233 C137.26704346 233.86520264 136.78018066 234.73040527 136.27856445 235.62182617 C135.75351318 236.53037354 135.22846191 237.4389209 134.6875 238.375 C134.14762451 239.31255127 133.60774902 240.25010254 133.05151367 241.21606445 C123.23739431 257.96628346 110.2875487 273.65584859 94.625 285.25 C93.932854 285.76393311 93.24070801 286.27786621 92.52758789 286.80737305 C70.35947083 303.0210044 46.31642868 312.50700484 19.125 316.375 C18.24070313 316.50648438 17.35640625 316.63796875 16.4453125 316.7734375 C-19.02068034 321.19175984 -59.62264949 310.26440599 -87.9375 288.375 C-94.15106531 283.30582675 -100.09189757 277.92836274 -105.875 272.375 C-106.4304248 271.84366455 -106.98584961 271.3123291 -107.55810547 270.76489258 C-118.93197605 259.67497656 -127.6970449 246.47672825 -134.875 232.375 C-135.19162598 231.76479004 -135.50825195 231.15458008 -135.83447266 230.52587891 C-155.45823382 192.35433304 -158.28384382 146.1363359 -145.27099609 105.48828125 C-137.72519726 82.57786507 -124.76666469 63.27168781 -108.875 45.375 C-108.29492188 44.72144531 -107.71484375 44.06789063 -107.1171875 43.39453125 C-90.19430937 25.49369786 -67.17587735 13.29604973 -43.875 6.125 C-43.11719238 5.89063232 -42.35938477 5.65626465 -41.57861328 5.41479492 C-27.70819333 1.36186345 -14.39365784 -0.15003694 0 0 Z M-63.875 98.375 C-76.28150785 113.79412565 -84.16067523 132.82517143 -86.875 152.375 C-80.55208669 151.7809228 -74.55750189 150.74577947 -68.39111328 149.2487793 C-67.48573979 149.03361916 -66.58036631 148.81845901 -65.64755726 148.59677887 C-62.66223675 147.8860086 -59.6788036 147.16762576 -56.6953125 146.44921875 C-54.58007849 145.94411385 -52.46472457 145.43951084 -50.34925842 144.93537903 C-45.87543596 143.86820664 -41.40241374 142.79776682 -36.93002319 141.72460938 C-30.0031708 140.06251141 -23.07464937 138.40745549 -16.14575195 136.75390625 C-9.31368531 135.12320109 -2.4816816 133.49223942 4.34971619 131.85873413 C21.20411359 127.82890526 38.06601304 123.83267546 54.9375 119.875 C56.99658528 119.39153402 59.05566746 118.90805483 61.11474609 118.42456055 C65.45118576 117.40670654 69.78794388 116.39022398 74.125 115.375 C72.38496913 103.63029452 62.67303224 94.13903288 53.47021484 87.11132812 C15.84762397 60.23036865 -32.52492525 62.95007277 -63.875 98.375 Z " fill="#AAAAAA" transform="translate(4232.875,529.625)"/>
<path d="M0 0 C28.86972353 27.19069486 48.49281552 65.56058731 50.22363281 105.6027832 C50.60563319 140.38036422 50.60563319 140.38036422 47.0625 154.875 C46.75650879 156.13908691 46.75650879 156.13908691 46.44433594 157.42871094 C43.44871921 169.43298002 39.52301111 180.77532254 34.0625 191.875 C33.75586426 192.50599609 33.44922852 193.13699219 33.13330078 193.78710938 C25.96673012 208.36545218 16.77880359 220.75856874 5.48681641 232.39941406 C4.17577953 233.75764288 2.88936442 235.13952452 1.60546875 236.5234375 C-22.97993776 262.37277039 -60.269843 277.97703192 -95.69921875 279.16015625 C-109.36205362 279.42038302 -122.58973691 278.88804583 -135.9375 275.875 C-136.67049316 275.71402832 -137.40348633 275.55305664 -138.15869141 275.38720703 C-161.50911763 270.07866942 -183.02366867 258.69535104 -200.9375 242.875 C-201.91203125 242.03324219 -202.8865625 241.19148438 -203.890625 240.32421875 C-235.95403046 212.18242235 -253.95744104 171.30450254 -256.81298828 129.05517578 C-258.43200102 100.70658023 -253.34458956 72.46462222 -240.9375 46.875 C-240.45410156 45.86687256 -240.45410156 45.86687256 -239.9609375 44.83837891 C-233.12527411 30.78845086 -224.21041227 18.55492414 -213.35839844 7.34716797 C-211.92413861 5.8611565 -210.51292224 4.35539917 -209.1015625 2.84765625 C-153.02234791 -56.14070313 -58.31362414 -53.36060801 0 0 Z M-163.55761719 58.24951172 C-179.32019423 76.8176713 -186.6173686 101.56633464 -185.11767578 125.69580078 C-182.9593253 151.80072811 -171.65209061 174.13740398 -152.03125 191.4375 C-139.82573153 201.14941792 -124.62058248 207.89480734 -108.9375 208.875 C-108.15375 208.92785156 -107.37 208.98070312 -106.5625 209.03515625 C-93.79462539 209.47215196 -81.32507816 206.56878908 -69.9375 200.875 C-68.95265625 200.38257813 -67.9678125 199.89015625 -66.953125 199.3828125 C-58.81392368 194.97583562 -52.4365047 189.36453093 -45.9375 182.875 C-45.28007812 182.22917969 -44.62265625 181.58335937 -43.9453125 180.91796875 C-28.04855396 164.10549832 -20.38856424 139.28933828 -20.7890625 116.4609375 C-22.03276986 94.79424606 -29.0213801 73.04975121 -43.9375 56.875 C-45.15373047 55.52148438 -45.15373047 55.52148438 -46.39453125 54.140625 C-61.55653476 38.0684573 -81.07720682 29.23685502 -103.25 28.5625 C-127.57226465 29.08369139 -147.49375045 40.43767847 -163.55761719 58.24951172 Z " fill="#AAAAAA" transform="translate(5505.9375,567.125)"/>
<path d="M0 0 C24.42 0 48.84 0 74 0 C74 36.3 74 72.6 74 110 C98.09 110 122.18 110 147 110 C147 131.45 147 152.9 147 175 C122.91 175 98.82 175 74 175 C74 253.21 74 331.42 74 412 C49.58 412 25.16 412 0 412 C0 333.79 0 255.58 0 175 C-19.14 175 -38.28 175 -58 175 C-58 153.55 -58 132.1 -58 110 C-38.86 110 -19.72 110 0 110 C0 73.7 0 37.4 0 0 Z " fill="#AAAAAA" transform="translate(4519,423)"/>
<path d="M0 0 C24.42 0 48.84 0 74 0 C74 36.3 74 72.6 74 110 C98.09 110 122.18 110 147 110 C147 131.45 147 152.9 147 175 C122.91 175 98.82 175 74 175 C74 253.21 74 331.42 74 412 C49.58 412 25.16 412 0 412 C0 333.79 0 255.58 0 175 C-19.14 175 -38.28 175 -58 175 C-58 153.55 -58 132.1 -58 110 C-38.86 110 -19.72 110 0 110 C0 73.7 0 37.4 0 0 Z " fill="#AAAAAA" transform="translate(2786,423)"/>
<path d="M0 0 C0 26.07 0 52.14 0 79 C-6.27 78.01 -12.54 77.02 -19 76 C-22.52884966 75.75497436 -25.8121678 75.55906386 -29.3125 75.625 C-30.55193359 75.6391394 -30.55193359 75.6391394 -31.81640625 75.65356445 C-49.23686848 76.07791772 -66.54957947 82.14243222 -79.5625 94 C-95.78221986 111.43131339 -100.28806384 131.26597052 -100.31884766 154.50878906 C-100.32816571 156.13615913 -100.33833711 157.7635245 -100.34928894 159.3908844 C-100.37639165 163.77225557 -100.39167924 168.15359495 -100.40471697 172.5350275 C-100.42043465 177.12745334 -100.44719695 181.71981507 -100.4727478 186.31219482 C-100.51938359 194.99222449 -100.55620088 203.67226642 -100.58942068 212.35235667 C-100.63492848 224.09327847 -100.69574542 235.83412056 -100.75566864 247.57497597 C-100.84956101 266.04994386 -100.92312172 284.52493532 -101 303 C-125.42 303 -149.84 303 -175 303 C-175 203.34 -175 103.68 -175 1 C-150.58 1 -126.16 1 -101 1 C-100.67 13.87 -100.34 26.74 -100 40 C-97.36 37.36 -94.72 34.72 -92 32 C-64.88573598 9.17816125 -35.26427365 0 0 0 Z " fill="#AAAAAA" transform="translate(5811,532)"/>
<path d="M0 0 C0 26.07 0 52.14 0 79 C-6.27 78.01 -12.54 77.02 -19 76 C-22.52884966 75.75497436 -25.8121678 75.55906386 -29.3125 75.625 C-30.55193359 75.6391394 -30.55193359 75.6391394 -31.81640625 75.65356445 C-49.23686848 76.07791772 -66.54957947 82.14243222 -79.5625 94 C-95.78221986 111.43131339 -100.28806384 131.26597052 -100.31884766 154.50878906 C-100.32816571 156.13615913 -100.33833711 157.7635245 -100.34928894 159.3908844 C-100.37639165 163.77225557 -100.39167924 168.15359495 -100.40471697 172.5350275 C-100.42043465 177.12745334 -100.44719695 181.71981507 -100.4727478 186.31219482 C-100.51938359 194.99222449 -100.55620088 203.67226642 -100.58942068 212.35235667 C-100.63492848 224.09327847 -100.69574542 235.83412056 -100.75566864 247.57497597 C-100.84956101 266.04994386 -100.92312172 284.52493532 -101 303 C-125.42 303 -149.84 303 -175 303 C-175 203.34 -175 103.68 -175 1 C-150.58 1 -126.16 1 -101 1 C-100.67 13.87 -100.34 26.74 -100 40 C-97.36 37.36 -94.72 34.72 -92 32 C-64.88573598 9.17816125 -35.26427365 0 0 0 Z " fill="#AAAAAA" transform="translate(2256,532)"/>
<path d="M0 0 C24.42 0 48.84 0 74 0 C74 99.66 74 199.32 74 302 C49.58 302 25.16 302 0 302 C0 202.34 0 102.68 0 0 Z " fill="#AAAAAA" transform="translate(1921,533)"/>
<path d="M0 0 C24.42 0 48.84 0 74 0 C74 26.4 74 52.8 74 80 C49.58 80 25.16 80 0 80 C0 53.6 0 27.2 0 0 Z " fill="#AAAAAA" transform="translate(1921,390)"/>
</svg>
